<svg xmlns="http://www.w3.org/2000/svg" viewBox="0 0 512 512" fill="none">
  <rect x="16" y="16" width="480" height="480" rx="100" fill="#0A0A0A"/>
  <path d="M134 162 C134 130 160 104 192 104 L332 104 C364 104 390 130 390 162 L390 282 C390 314 364 340 332 340 L240 340 L186 388 L198 340 L192 340 C160 340 134 314 134 282 Z"
        fill="#111111" stroke="#E8FF57" stroke-width="4.5"/>
  <g transform="translate(362, 126) rotate(38)">
    <rect x="-7" y="-58" width="14" height="72" rx="3" fill="#E8FF57"/>
    <polygon points="-7,14 7,14 0,28" fill="#E8FF57"/>
    <polygon points="-3,18 3,18 0,28" fill="#0A0A0A" opacity="0.3"/>
    <rect x="-7" y="-58" width="14" height="9" rx="3" fill="#D4E94E"/>
  </g>
  <line x1="182" y1="192" x2="320" y2="192" stroke="#E8FF57" stroke-width="4" stroke-linecap="round" opacity="0.5"/>
  <line x1="182" y1="224" x2="290" y2="224" stroke="#E8FF57" stroke-width="4" stroke-linecap="round" opacity="0.3"/>
  <line x1="182" y1="256" x2="244" y2="256" stroke="#E8FF57" stroke-width="4" stroke-linecap="round" opacity="0.18"/>
</svg>
